<svg width="300px" height="60px" xmlns="http://www.w3.org/2000/svg" viewBox="-97.896240234375 7.986230468749994 695.79248046875 134.0275390625" style="background: none;" preserveAspectRatio="xMidYMid"><defs><filter id="editing-vintage" x="-100%" y="-100%" width="300%" height="300%"><feConvolveMatrix in="SourceGraphic" result="extrude" order="8,8" divisor="1" kernelMatrix="1,0,0,0,0,0,0,0,0,1,0,0,0,0,0,0,0,0,1,0,0,0,0,0,0,0,0,1,0,0,0,0,0,0,0,0,1,0,0,0,0,0,0,0,0,1,0,0,0,0,0,0,0,0,1,0,0,0,0,0,0,0,0,1"> </feConvolveMatrix><feFlood flood-color="#cbcbcb" result="flood-extrude"></feFlood><feComposite operator="in" in="flood-extrude" in2="extrude" result="extrude-color"></feComposite><feOffset dx="4" dy="4" in="extrude-color" result="extrude-offset"></feOffset><feColorMatrix in="SourceGraphic" result="stroke" type="matrix" values="0 0 0 0 0 0 0 0 0 0 0 0 0 0 0 0 1 0 0 0 "></feColorMatrix><feColorMatrix in="SourceGraphic" result="fill" type="matrix" values="0 0 0 0 0 0 0 0 0 0 0 0 0 0 0 1 0 0 1 0 "></feColorMatrix><feConvolveMatrix in="stroke" result="inner-shadow" order="5,5" divisor="1" kernelMatrix="1 0 0 0 0 0 1 0 0 0 0 0 1 0 0 0 0 0 1 0 0 0 0 0 1 "></feConvolveMatrix><feOffset dx="1" dy="1" in="inner-shadow" result="offset"></feOffset><feComposite operator="in" in="offset" in2="SourceAlpha" result="comp"></feComposite><feFlood flood-color="#000" result="flood3"></feFlood><feComposite operator="in" in="flood3" in2="comp" result="comp2"></feComposite><feColorMatrix in="comp2" result="comp3" type="matrix" values="1 0 0 0 0 0 1 0 0 0 0 0 1 0 0 0 0 0 0.5 0 "></feColorMatrix><feFlood flood-color="#444444" result="flood1"></feFlood><feComposite operator="in" in="flood1" in2="fill" result="fill2"></feComposite><feFlood flood-color="#fff" result="flood2"></feFlood><feComposite operator="in" in="flood2" in2="stroke" result="stroke2"></feComposite><feMerge result="obj"><feMergeNode in="extrude-offset"></feMergeNode><feMergeNode in="fill2"></feMergeNode><feMergeNode in="comp3"></feMergeNode></feMerge><feConvolveMatrix in="SourceAlpha" result="shadow" order="8,8" divisor="1" kernelMatrix="1,0,0,0,0,0,0,0,0,1,0,0,0,0,0,0,0,0,1,0,0,0,0,0,0,0,0,1,0,0,0,0,0,0,0,0,1,0,0,0,0,0,0,0,0,1,0,0,0,0,0,0,0,0,1,0,0,0,0,0,0,0,0,1"></feConvolveMatrix><feOffset dx="12" dy="12" in="shadow" result="shadow-offset"></feOffset><feFlood flood-color="#444444" result="flood-shadow"></feFlood><feComposite operator="in" in="flood-shadow" in2="shadow-offset" result="shadow-color"></feComposite><feMerge><feMergeNode in="shadow-color"></feMergeNode><feMergeNode in="obj"></feMergeNode></feMerge></filter></defs><g transform="translate(-8,-8)"><g filter="url(#editing-vintage)"><g transform="translate(2.7249926924705505, 101.63999938964844)"><path d="M15.91 0L0.58 0L8.78-43.78L9.58-47.52L24.98-47.52L15.91 0ZM45.14-4.25L45.14-4.25L45.14-4.25Q43.20 1.44 35.71 1.44L35.71 1.44L35.71 1.44Q30.17 1.44 26.35-5.18L26.35-5.18L26.35-5.18Q22.46-11.81 21.74-22.61L21.74-22.61L21.74-22.61Q29.66-37.08 35.14-43.06L35.14-43.06L35.14-43.06Q40.39-48.74 45.86-48.74L45.86-48.74L45.86-48.74Q48.82-48.74 50.94-47.16L50.94-47.16L50.94-47.16Q53.06-45.58 53.57-43.06L53.57-43.06L53.57-43.06Q51.12-42.05 49.97-41.26L49.97-41.26L49.97-41.26Q47.09-39.10 43.20-34.27L43.20-34.27L36.65-26.42L36.65-26.42Q35.06-24.55 34.42-23.69L34.42-23.69L34.42-23.69Q35.50-17.64 38.74-11.66L38.74-11.66L38.74-11.66Q41.83-5.98 45.14-4.25ZM52.38-2.16L52.38-2.16L52.38-2.16Q50.69-4.03 49.93-6.98L49.93-6.98L49.93-6.98Q49.18-9.94 49.18-14.76L49.18-14.76L49.18-14.76Q49.18-19.58 50.83-23.98L50.83-23.98L50.83-23.98Q52.49-28.37 55.51-31.54L55.51-31.54L55.51-31.54Q61.70-38.16 71.93-38.16L71.93-38.16L71.93-38.16Q75.60-38.16 78.26-36.94L78.26-36.94L90.58-38.16L85.25-10.08L85.25-10.08Q85.03-9.22 85.03-7.63L85.03-7.63L85.03-7.63Q85.03-6.05 86.00-5.04L86.00-5.04L86.00-5.04Q86.98-4.03 88.42-3.89L88.42-3.89L88.42-3.89Q87.70-1.44 85.07 0L85.07 0L85.07 0Q82.44 1.44 79.49 1.44L79.49 1.44L79.49 1.44Q76.54 1.44 74.56 0.32L74.56 0.32L74.56 0.32Q72.58-0.79 72.00-2.66L72.00-2.66L72.00-2.66Q70.85-0.86 68.40 0.29L68.40 0.29L68.40 0.29Q65.95 1.44 62.68 1.44L62.68 1.44L62.68 1.44Q59.40 1.44 56.74 0.58L56.74 0.58L56.74 0.58Q54.07-0.29 52.38-2.16ZM67.57-31.39L67.57-31.39L67.57-31.39Q66.74-30.10 66.02-27.90L66.02-27.90L66.02-27.90Q65.30-25.70 64.12-19.84L64.12-19.84L64.12-19.84Q62.93-13.97 62.93-9.79L62.93-9.79L62.93-9.79Q62.93-5.62 63.58-4.39L63.58-4.39L63.58-4.39Q64.22-3.17 65.38-3.17L65.38-3.17L65.38-3.17Q67.68-3.17 69.37-5.36L69.37-5.36L69.37-5.36Q71.06-7.56 71.71-11.45L71.71-11.45L75.53-32.54L75.53-32.54Q74.02-33.84 72.25-33.84L72.25-33.84L72.25-33.84Q70.49-33.84 69.44-33.26L69.44-33.26L69.44-33.26Q68.40-32.69 67.57-31.39ZM124.92 1.44L124.92 1.44L124.92 1.44Q116.21 1.44 116.21-5.33L116.21-5.33L116.21-5.33Q116.28-7.20 116.86-10.37L116.86-10.37L118.15-16.99L118.15-16.99Q120.10-26.35 120.10-28.44L120.10-28.44L120.10-28.44Q120.10-32.62 117.65-32.62L117.65-32.62L117.65-32.62Q113.54-32.62 111.38-21.89L111.38-21.89L107.14 0L92.66 1.44L100.15-36.79L111.96-38.16L110.81-31.10L110.81-31.10Q114.19-38.16 124.56-38.16L124.56-38.16L124.56-38.16Q129.60-38.16 131.72-36.04L131.72-36.04L131.72-36.04Q133.85-33.91 133.85-29.16L133.85-29.16L133.85-29.16Q133.85-24.70 131.54-14.26L131.54-14.26L131.54-14.26Q130.46-9.58 130.46-7.81L130.46-7.81L130.46-7.81Q130.46-6.05 131.44-5.04L131.44-5.04L131.44-5.04Q132.41-4.03 133.85-3.89L133.85-3.89L133.85-3.89Q133.13-1.44 130.64 0L130.64 0L130.64 0Q128.16 1.44 124.92 1.44ZM162.29-38.16L162.29-38.16L162.29-38.16Q164.88-38.16 166.90-37.58L166.90-37.58L166.90-37.58Q166.97-37.87 167.11-38.66L167.11-38.66L167.47-40.90L167.47-40.90Q167.76-42.34 168.19-44.71L168.19-44.71L169.34-50.40L183.67-51.84L175.68-10.08L175.68-10.08Q175.61-9.65 175.61-8.93L175.61-8.93L175.61-7.78L175.61-7.78Q175.61-6.19 176.40-5.00L176.40-5.00L176.40-5.00Q177.19-3.82 178.49-3.82L178.49-3.82L178.49-3.82Q177.05-0.43 172.66 1.01L172.66 1.01L172.66 1.01Q171.14 1.44 169.02 1.44L169.02 1.44L169.02 1.44Q166.90 1.44 164.95 0.32L164.95 0.32L164.95 0.32Q163.01-0.79 162.43-2.66L162.43-2.66L162.43-2.66Q161.28-0.79 158.98 0.32L158.98 0.32L158.98 0.32Q156.67 1.44 153.32 1.44L153.32 1.44L153.32 1.44Q149.98 1.44 147.20 0.58L147.20 0.58L147.20 0.58Q144.43-0.29 142.70-2.16L142.70-2.16L142.70-2.16Q139.54-5.83 139.54-14.18L139.54-14.18L139.54-14.18Q139.54-24.98 145.87-31.54L145.87-31.54L145.87-31.54Q152.21-38.16 162.29-38.16ZM161.78-33.84L161.78-33.84L161.78-33.84Q159.12-33.84 157.68-30.96L157.68-30.96L157.68-30.96Q156.24-28.08 154.76-20.95L154.76-20.95L154.76-20.95Q153.29-13.82 153.29-7.42L153.29-7.42L153.29-7.42Q153.29-3.02 155.88-3.02L155.88-3.02L155.88-3.02Q158.18-3.02 159.80-5.33L159.80-5.33L159.80-5.33Q161.42-7.63 162.07-11.45L162.07-11.45L165.96-32.54L165.96-32.54Q164.45-33.84 161.78-33.84ZM200.30 1.44L200.30 1.44L200.30 1.44Q184.46 1.44 184.46-13.46L184.46-13.46L184.46-13.46Q184.46-24.05 190.30-30.89L190.30-30.89L190.30-30.89Q196.49-38.16 207.22-38.16L207.22-38.16L207.22-38.16Q214.99-38.16 218.95-34.56L218.95-34.56L218.95-34.56Q222.91-30.96 222.91-23.40L222.91-23.40L222.91-23.40Q222.91-11.88 216.72-5.18L216.72-5.18L216.72-5.18Q210.67 1.44 200.30 1.44ZM202.18-29.88L202.18-29.88L202.18-29.88Q201.31-27.94 200.63-25.02L200.63-25.02L200.63-25.02Q199.94-22.10 199.08-17.50L199.08-17.50L199.08-17.50Q198.22-12.89 198.22-7.20L198.22-7.20L198.22-7.20Q198.22-5.33 198.83-4.10L198.83-4.10L198.83-4.10Q199.44-2.88 201.10-2.88L201.10-2.88L201.10-2.88Q202.75-2.88 203.80-3.67L203.80-3.67L203.80-3.67Q204.84-4.46 205.63-6.34L205.63-6.34L205.63-6.34Q207.07-9.65 208.22-15.80L208.22-15.80L208.22-15.80Q209.38-21.96 209.48-24.62L209.48-24.62L209.48-24.62Q209.59-27.29 209.59-29.27L209.59-29.27L209.59-29.27Q209.59-31.25 209.02-32.54L209.02-32.54L209.02-32.54Q208.44-33.84 206.82-33.84L206.82-33.84L206.82-33.84Q205.20-33.84 204.12-32.83L204.12-32.83L204.12-32.83Q203.04-31.82 202.18-29.88ZM248.11 0L239.83 0L252.86-47.52L267.91-47.52L271.22-20.38L284.62-47.52L297.22-47.52L298.51-11.95L298.51-11.95Q298.80-4.90 302.26-2.74L302.26-2.74L302.26-2.74Q301.46-1.30 299.16 0.07L299.16 0.07L299.16 0.07Q296.86 1.44 293.80 1.44L293.80 1.44L293.80 1.44Q290.74 1.44 288.94 0.58L288.94 0.58L288.94 0.58Q287.14-0.29 286.13-1.73L286.13-1.73L286.13-1.73Q284.33-4.32 284.33-9.29L284.33-9.29L284.33-31.54L270.14 0L261.22 0L256.18-32.33L248.11 0ZM308.48-2.16L308.48-2.16L308.48-2.16Q306.79-4.03 306.04-6.98L306.04-6.98L306.04-6.98Q305.28-9.94 305.28-14.76L305.28-14.76L305.28-14.76Q305.28-19.58 306.94-23.98L306.94-23.98L306.94-23.98Q308.59-28.37 311.62-31.54L311.62-31.54L311.62-31.54Q317.81-38.16 328.03-38.16L328.03-38.16L328.03-38.16Q331.70-38.16 334.37-36.94L334.37-36.94L346.68-38.16L341.35-10.08L341.35-10.08Q341.14-9.22 341.14-7.63L341.14-7.63L341.14-7.63Q341.14-6.05 342.11-5.04L342.11-5.04L342.11-5.04Q343.08-4.03 344.52-3.89L344.52-3.89L344.52-3.89Q343.80-1.44 341.17 0L341.17 0L341.17 0Q338.54 1.44 335.59 1.44L335.59 1.44L335.59 1.44Q332.64 1.44 330.66 0.32L330.66 0.32L330.66 0.32Q328.68-0.79 328.10-2.66L328.10-2.66L328.10-2.66Q326.95-0.86 324.50 0.29L324.50 0.29L324.50 0.29Q322.06 1.44 318.78 1.44L318.78 1.44L318.78 1.44Q315.50 1.44 312.84 0.58L312.84 0.58L312.84 0.58Q310.18-0.29 308.48-2.16ZM323.68-31.39L323.68-31.39L323.68-31.39Q322.85-30.10 322.13-27.90L322.13-27.90L322.13-27.90Q321.41-25.70 320.22-19.84L320.22-19.84L320.22-19.84Q319.03-13.97 319.03-9.79L319.03-9.79L319.03-9.79Q319.03-5.62 319.68-4.39L319.68-4.39L319.68-4.39Q320.33-3.17 321.48-3.17L321.48-3.17L321.48-3.17Q323.78-3.17 325.48-5.36L325.48-5.36L325.48-5.36Q327.17-7.56 327.82-11.45L327.82-11.45L331.63-32.54L331.63-32.54Q330.12-33.84 328.36-33.84L328.36-33.84L328.36-33.84Q326.59-33.84 325.55-33.26L325.55-33.26L325.55-33.26Q324.50-32.69 323.68-31.39ZM373.10-20.23L373.10-20.23L373.10-20.23Q375.70-24.84 375.70-29.52L375.70-29.52L375.70-29.52Q375.70-32.62 373.46-32.62L373.46-32.62L373.46-32.62Q371.74-32.62 369.94-29.66L369.94-29.66L369.94-29.66Q368.06-26.71 367.49-22.90L367.49-22.90L363.74 0L348.84 1.44L356.18-36.72L368.06-38.16L366.77-30.89L366.77-30.89Q370.30-38.16 378.22-38.16L378.22-38.16L378.22-38.16Q382.39-38.16 384.66-36.00L384.66-36.00L384.66-36.00Q386.93-33.84 386.93-29.41L386.93-29.41L386.93-29.41Q386.93-24.98 384.01-22.18L384.01-22.18L384.01-22.18Q381.10-19.37 376.13-19.37L376.13-19.37L376.13-19.37Q373.97-19.37 373.10-20.23ZM406.66-34.13L406.66-34.13L406.66-34.13Q410.54-38.16 418.75-38.16L418.75-38.16L418.75-38.16Q423.29-38.16 425.77-35.75L425.77-35.75L425.77-35.75Q428.26-33.34 428.26-28.91L428.26-28.91L428.26-28.91Q428.26-24.48 425.77-21.35L425.77-21.35L425.77-21.35Q423.29-18.22 418.68-16.92L418.68-16.92L418.68-16.92Q419.04-15.48 419.54-13.97L419.54-13.97L420.55-11.09L420.55-11.09Q421.92-7.42 423.00-6.12L423.00-6.12L423.00-6.12Q424.08-4.82 425.52-4.39L425.52-4.39L425.52-4.39Q424.73-1.44 421.85 0.14L421.85 0.14L421.85 0.14Q419.54 1.44 416.38 1.44L416.38 1.44L416.38 1.44Q407.09 1.44 405.86-12.89L405.86-12.89L405.86-12.89Q405.65-14.90 405.65-16.92L405.65-16.92L405.65-16.92Q409.25-17.93 411.77-21.31L411.77-21.31L411.77-21.31Q414.29-24.70 414.29-28.66L414.29-28.66L414.29-28.66Q414.29-32.62 411.48-32.62L411.48-32.62L411.48-32.62Q409.46-32.62 407.88-30.38L407.88-30.38L407.88-30.38Q406.30-28.15 405.58-24.34L405.58-24.34L400.82 0L386.28 1.44L396.36-50.40L410.83-51.84L409.18-43.27L409.18-43.27Q408.10-37.22 406.66-34.13ZM460.73-12.17L460.73-12.17L460.73-12.17Q462.53-10.94 462.53-8.24L462.53-8.24L462.53-8.24Q462.53-5.54 461.16-3.82L461.16-3.82L461.16-3.82Q459.79-2.09 457.56-0.94L457.56-0.94L457.56-0.94Q452.95 1.44 447.98 1.44L447.98 1.44L447.98 1.44Q443.02 1.44 440.10 0.36L440.10 0.36L440.10 0.36Q437.18-0.72 435.24-2.74L435.24-2.74L435.24-2.74Q431.42-6.55 431.42-13.54L431.42-13.54L431.42-13.54Q431.42-24.41 437.33-31.03L437.33-31.03L437.33-31.03Q443.66-38.16 454.68-38.16L454.68-38.16L454.68-38.16Q461.52-38.16 464.90-35.28L464.90-35.28L464.90-35.28Q467.42-33.12 467.42-29.59L467.42-29.59L467.42-29.59Q467.42-16.92 445.54-16.92L445.54-16.92L445.54-16.92Q445.25-15.05 445.25-13.46L445.25-13.46L445.25-13.46Q445.25-10.15 446.72-8.89L446.72-8.89L446.72-8.89Q448.20-7.63 450.94-7.63L450.94-7.63L450.94-7.63Q453.67-7.63 456.59-8.89L456.59-8.89L456.59-8.89Q459.50-10.15 460.73-12.17ZM446.04-20.02L446.04-20.02L446.04-20.02Q451.15-20.02 454.10-23.18L454.10-23.18L454.10-23.18Q457.06-26.21 457.06-31.03L457.06-31.03L457.06-31.03Q457.06-32.69 456.44-33.59L456.44-33.59L456.44-33.59Q455.83-34.49 454.61-34.49L454.61-34.49L454.61-34.49Q453.38-34.49 452.34-34.02L452.34-34.02L452.34-34.02Q451.30-33.55 450.22-31.97L450.22-31.97L450.22-31.97Q447.55-28.37 446.04-20.02ZM471.02-7.20L471.02-7.20L471.02-7.20Q471.02-9.14 472.03-14.04L472.03-14.04L475.85-33.48L471.60-33.48L471.89-35.64L471.89-35.64Q480.53-38.23 488.88-44.57L488.88-44.57L492.34-44.57L490.61-36.72L496.22-36.72L495.58-33.48L490.03-33.48L486.36-14.04L486.36-14.04Q485.42-9.58 485.42-8.06L485.42-8.06L485.42-8.06Q485.42-4.61 488.45-3.89L488.45-3.89L488.45-3.89Q487.73-1.44 485.14 0L485.14 0L485.14 0Q482.54 1.44 478.87 1.44L478.87 1.44L478.87 1.44Q475.20 1.44 473.11-0.86L473.11-0.86L473.11-0.86Q471.02-3.17 471.02-7.20Z" fill="#f00" stroke="#0f0" stroke-width="1.8"></path></g></g><g><g transform="translate(2.6078051924705505, 101.63999938964844)"><path d="M15.91 0L0.58 0L8.78-43.78L9.58-47.52L24.98-47.52L15.91 0ZM45.14-4.25L45.14-4.25L45.14-4.25Q43.20 1.44 35.71 1.44L35.71 1.44L35.71 1.44Q30.17 1.44 26.35-5.18L26.35-5.18L26.35-5.18Q22.46-11.81 21.74-22.61L21.74-22.61L21.74-22.61Q29.66-37.08 35.14-43.06L35.14-43.06L35.14-43.06Q40.39-48.74 45.86-48.74L45.86-48.74L45.86-48.74Q48.82-48.74 50.94-47.16L50.94-47.16L50.94-47.16Q53.06-45.58 53.57-43.06L53.57-43.06L53.57-43.06Q51.12-42.05 49.97-41.26L49.97-41.26L49.97-41.26Q47.09-39.10 43.20-34.27L43.20-34.27L36.65-26.42L36.65-26.42Q35.06-24.55 34.42-23.69L34.42-23.69L34.42-23.69Q35.50-17.64 38.74-11.66L38.74-11.66L38.74-11.66Q41.83-5.98 45.14-4.25ZM52.38-2.16L52.38-2.16L52.38-2.16Q50.69-4.03 49.93-6.98L49.93-6.98L49.93-6.98Q49.18-9.94 49.18-14.76L49.18-14.76L49.18-14.76Q49.18-19.58 50.83-23.98L50.83-23.98L50.83-23.98Q52.49-28.37 55.51-31.54L55.51-31.54L55.51-31.54Q61.70-38.16 71.93-38.16L71.93-38.16L71.93-38.16Q75.60-38.16 78.26-36.94L78.26-36.94L90.58-38.16L85.25-10.08L85.25-10.08Q85.03-9.22 85.03-7.63L85.03-7.63L85.03-7.63Q85.03-6.05 86.00-5.04L86.00-5.04L86.00-5.04Q86.98-4.03 88.42-3.89L88.42-3.89L88.42-3.89Q87.70-1.44 85.07 0L85.07 0L85.07 0Q82.44 1.44 79.49 1.44L79.49 1.44L79.49 1.44Q76.54 1.44 74.56 0.32L74.56 0.32L74.56 0.32Q72.58-0.79 72.00-2.66L72.00-2.66L72.00-2.66Q70.85-0.86 68.40 0.29L68.40 0.29L68.40 0.29Q65.95 1.44 62.68 1.44L62.68 1.44L62.68 1.44Q59.40 1.44 56.74 0.58L56.74 0.58L56.74 0.58Q54.07-0.29 52.38-2.16ZM67.57-31.39L67.57-31.39L67.57-31.39Q66.74-30.10 66.02-27.90L66.02-27.90L66.02-27.90Q65.30-25.70 64.12-19.84L64.12-19.84L64.12-19.84Q62.93-13.97 62.93-9.79L62.93-9.79L62.93-9.79Q62.93-5.62 63.58-4.39L63.58-4.39L63.58-4.39Q64.22-3.17 65.38-3.17L65.38-3.17L65.38-3.17Q67.68-3.17 69.37-5.36L69.37-5.36L69.37-5.36Q71.06-7.56 71.71-11.45L71.71-11.45L75.53-32.54L75.53-32.54Q74.02-33.84 72.25-33.84L72.25-33.84L72.25-33.84Q70.49-33.84 69.44-33.26L69.44-33.26L69.44-33.26Q68.40-32.69 67.57-31.39ZM124.92 1.44L124.92 1.44L124.92 1.44Q116.21 1.44 116.21-5.33L116.21-5.33L116.21-5.33Q116.28-7.20 116.86-10.37L116.86-10.37L118.15-16.99L118.15-16.99Q120.10-26.35 120.10-28.44L120.10-28.44L120.10-28.44Q120.10-32.62 117.65-32.62L117.65-32.62L117.65-32.62Q113.54-32.62 111.38-21.89L111.38-21.89L107.14 0L92.66 1.44L100.15-36.79L111.96-38.16L110.81-31.10L110.81-31.10Q114.19-38.16 124.56-38.16L124.56-38.16L124.56-38.16Q129.60-38.16 131.72-36.04L131.72-36.04L131.72-36.04Q133.85-33.91 133.85-29.16L133.85-29.16L133.85-29.16Q133.85-24.70 131.54-14.26L131.54-14.26L131.54-14.26Q130.46-9.58 130.46-7.81L130.46-7.81L130.46-7.81Q130.46-6.05 131.44-5.04L131.44-5.04L131.44-5.04Q132.41-4.03 133.85-3.89L133.85-3.89L133.85-3.89Q133.13-1.44 130.64 0L130.64 0L130.64 0Q128.16 1.44 124.92 1.44ZM162.29-38.16L162.29-38.16L162.29-38.16Q164.88-38.16 166.90-37.58L166.90-37.58L166.90-37.58Q166.97-37.87 167.11-38.66L167.11-38.66L167.47-40.90L167.47-40.90Q167.76-42.34 168.19-44.71L168.19-44.71L169.34-50.40L183.67-51.84L175.68-10.08L175.68-10.08Q175.61-9.65 175.61-8.93L175.61-8.93L175.61-7.78L175.61-7.78Q175.61-6.19 176.40-5.00L176.40-5.00L176.40-5.00Q177.19-3.82 178.49-3.82L178.49-3.82L178.49-3.82Q177.05-0.43 172.66 1.01L172.66 1.01L172.66 1.01Q171.14 1.44 169.02 1.44L169.02 1.44L169.02 1.44Q166.90 1.44 164.95 0.32L164.95 0.32L164.95 0.32Q163.01-0.79 162.43-2.66L162.43-2.66L162.43-2.66Q161.28-0.79 158.98 0.32L158.98 0.32L158.98 0.32Q156.67 1.44 153.32 1.44L153.32 1.44L153.32 1.44Q149.98 1.44 147.20 0.58L147.20 0.58L147.20 0.58Q144.43-0.29 142.70-2.16L142.70-2.16L142.70-2.16Q139.54-5.83 139.54-14.18L139.54-14.18L139.54-14.18Q139.54-24.98 145.87-31.54L145.87-31.54L145.87-31.54Q152.21-38.16 162.29-38.16ZM161.78-33.84L161.78-33.84L161.78-33.84Q159.12-33.84 157.68-30.96L157.68-30.96L157.68-30.96Q156.24-28.08 154.76-20.95L154.76-20.95L154.76-20.95Q153.29-13.82 153.29-7.42L153.29-7.42L153.29-7.42Q153.29-3.02 155.88-3.02L155.88-3.02L155.88-3.02Q158.18-3.02 159.80-5.33L159.80-5.33L159.80-5.33Q161.42-7.63 162.07-11.45L162.07-11.45L165.96-32.54L165.96-32.54Q164.45-33.84 161.78-33.84ZM200.30 1.44L200.30 1.44L200.30 1.44Q184.46 1.44 184.46-13.46L184.46-13.46L184.46-13.46Q184.46-24.05 190.30-30.89L190.30-30.89L190.30-30.89Q196.49-38.16 207.22-38.16L207.22-38.16L207.22-38.16Q214.99-38.16 218.95-34.56L218.95-34.56L218.95-34.56Q222.91-30.96 222.91-23.40L222.91-23.40L222.91-23.40Q222.91-11.88 216.72-5.18L216.72-5.18L216.72-5.18Q210.67 1.44 200.30 1.44ZM202.18-29.88L202.18-29.88L202.18-29.88Q201.31-27.94 200.63-25.02L200.63-25.02L200.63-25.02Q199.94-22.10 199.08-17.50L199.08-17.50L199.08-17.50Q198.22-12.89 198.22-7.20L198.22-7.20L198.22-7.20Q198.22-5.33 198.83-4.10L198.83-4.10L198.83-4.10Q199.44-2.88 201.10-2.88L201.10-2.88L201.10-2.88Q202.75-2.88 203.80-3.67L203.80-3.67L203.80-3.67Q204.84-4.46 205.63-6.34L205.63-6.34L205.63-6.34Q207.07-9.65 208.22-15.80L208.22-15.80L208.22-15.80Q209.38-21.96 209.48-24.62L209.48-24.62L209.48-24.62Q209.59-27.29 209.59-29.27L209.59-29.27L209.59-29.27Q209.59-31.25 209.02-32.54L209.02-32.54L209.02-32.54Q208.44-33.84 206.82-33.84L206.82-33.84L206.82-33.84Q205.20-33.84 204.12-32.83L204.12-32.83L204.12-32.83Q203.04-31.82 202.18-29.88ZM248.11 0L239.83 0L252.86-47.52L267.91-47.52L271.22-20.38L284.62-47.52L297.22-47.52L298.51-11.95L298.51-11.95Q298.80-4.90 302.26-2.74L302.26-2.74L302.26-2.74Q301.46-1.30 299.16 0.07L299.16 0.07L299.16 0.07Q296.86 1.44 293.80 1.44L293.80 1.44L293.80 1.44Q290.74 1.44 288.94 0.58L288.94 0.58L288.94 0.58Q287.14-0.29 286.13-1.73L286.13-1.73L286.13-1.73Q284.33-4.32 284.33-9.29L284.33-9.29L284.33-31.54L270.14 0L261.22 0L256.18-32.33L248.11 0ZM308.48-2.16L308.48-2.16L308.48-2.16Q306.79-4.03 306.04-6.98L306.04-6.98L306.04-6.98Q305.28-9.94 305.28-14.76L305.28-14.76L305.28-14.76Q305.28-19.58 306.94-23.98L306.94-23.98L306.94-23.98Q308.59-28.37 311.62-31.54L311.62-31.54L311.62-31.54Q317.81-38.16 328.03-38.16L328.03-38.16L328.03-38.16Q331.70-38.16 334.37-36.94L334.37-36.94L346.68-38.16L341.35-10.08L341.35-10.08Q341.14-9.22 341.14-7.63L341.14-7.63L341.14-7.63Q341.14-6.05 342.11-5.04L342.11-5.04L342.11-5.04Q343.08-4.03 344.52-3.89L344.52-3.89L344.52-3.89Q343.80-1.44 341.17 0L341.17 0L341.17 0Q338.54 1.44 335.59 1.44L335.59 1.44L335.59 1.44Q332.64 1.44 330.66 0.32L330.66 0.32L330.66 0.32Q328.68-0.79 328.10-2.66L328.10-2.66L328.10-2.66Q326.95-0.86 324.50 0.29L324.50 0.29L324.50 0.29Q322.06 1.44 318.78 1.44L318.78 1.44L318.78 1.44Q315.50 1.44 312.84 0.58L312.84 0.58L312.84 0.58Q310.18-0.29 308.48-2.16ZM323.68-31.39L323.68-31.39L323.68-31.39Q322.85-30.10 322.13-27.90L322.13-27.90L322.13-27.90Q321.41-25.70 320.22-19.84L320.22-19.84L320.22-19.84Q319.03-13.97 319.03-9.79L319.03-9.79L319.03-9.79Q319.03-5.62 319.68-4.39L319.68-4.39L319.68-4.39Q320.33-3.17 321.48-3.17L321.48-3.17L321.48-3.17Q323.78-3.17 325.48-5.36L325.48-5.36L325.48-5.36Q327.17-7.56 327.82-11.45L327.82-11.45L331.63-32.54L331.63-32.54Q330.12-33.84 328.36-33.84L328.36-33.84L328.36-33.84Q326.59-33.84 325.55-33.26L325.55-33.26L325.55-33.26Q324.50-32.69 323.68-31.39ZM373.10-20.23L373.10-20.23L373.10-20.23Q375.70-24.84 375.70-29.52L375.70-29.52L375.70-29.52Q375.70-32.62 373.46-32.62L373.46-32.62L373.46-32.62Q371.74-32.62 369.94-29.66L369.94-29.66L369.94-29.66Q368.06-26.71 367.49-22.90L367.49-22.90L363.74 0L348.84 1.44L356.18-36.72L368.06-38.16L366.77-30.89L366.77-30.89Q370.30-38.16 378.22-38.16L378.22-38.16L378.22-38.16Q382.39-38.16 384.66-36.00L384.66-36.00L384.66-36.00Q386.93-33.84 386.93-29.41L386.93-29.41L386.93-29.41Q386.93-24.98 384.01-22.18L384.01-22.18L384.01-22.18Q381.10-19.37 376.13-19.37L376.13-19.37L376.13-19.37Q373.97-19.37 373.10-20.23ZM406.66-34.13L406.66-34.13L406.66-34.13Q410.54-38.16 418.75-38.16L418.75-38.16L418.75-38.16Q423.29-38.16 425.77-35.75L425.77-35.75L425.77-35.75Q428.26-33.34 428.26-28.91L428.26-28.91L428.26-28.91Q428.26-24.48 425.77-21.35L425.77-21.35L425.77-21.35Q423.29-18.22 418.68-16.92L418.68-16.92L418.68-16.92Q419.04-15.48 419.54-13.97L419.54-13.97L420.55-11.09L420.55-11.09Q421.92-7.42 423.00-6.12L423.00-6.12L423.00-6.12Q424.08-4.82 425.52-4.39L425.52-4.39L425.52-4.39Q424.73-1.44 421.85 0.14L421.85 0.14L421.85 0.14Q419.54 1.44 416.38 1.44L416.38 1.44L416.38 1.44Q407.09 1.44 405.86-12.89L405.86-12.89L405.86-12.89Q405.65-14.90 405.65-16.92L405.65-16.92L405.65-16.92Q409.25-17.93 411.77-21.31L411.77-21.31L411.77-21.31Q414.29-24.70 414.29-28.66L414.29-28.66L414.29-28.66Q414.29-32.62 411.48-32.62L411.48-32.62L411.48-32.62Q409.46-32.62 407.88-30.38L407.88-30.38L407.88-30.38Q406.30-28.15 405.58-24.34L405.58-24.34L400.82 0L386.28 1.44L396.36-50.40L410.83-51.84L409.18-43.27L409.18-43.27Q408.10-37.22 406.66-34.13ZM460.73-12.17L460.73-12.17L460.73-12.17Q462.53-10.94 462.53-8.24L462.53-8.24L462.53-8.24Q462.53-5.54 461.16-3.82L461.16-3.82L461.16-3.82Q459.79-2.09 457.56-0.94L457.56-0.94L457.56-0.94Q452.95 1.44 447.98 1.44L447.98 1.44L447.98 1.44Q443.02 1.44 440.10 0.36L440.10 0.36L440.10 0.36Q437.18-0.72 435.24-2.74L435.24-2.74L435.24-2.74Q431.42-6.55 431.42-13.54L431.42-13.54L431.42-13.54Q431.42-24.41 437.33-31.03L437.33-31.03L437.33-31.03Q443.66-38.16 454.68-38.16L454.68-38.16L454.68-38.16Q461.52-38.16 464.90-35.28L464.90-35.28L464.90-35.28Q467.42-33.12 467.42-29.59L467.42-29.59L467.42-29.59Q467.42-16.92 445.54-16.92L445.54-16.92L445.54-16.92Q445.25-15.05 445.25-13.46L445.25-13.46L445.25-13.46Q445.25-10.15 446.72-8.89L446.72-8.89L446.72-8.89Q448.20-7.63 450.94-7.63L450.94-7.63L450.94-7.63Q453.67-7.63 456.59-8.89L456.59-8.89L456.59-8.89Q459.50-10.15 460.73-12.17ZM446.04-20.02L446.04-20.02L446.04-20.02Q451.15-20.02 454.10-23.18L454.10-23.18L454.10-23.18Q457.06-26.21 457.06-31.03L457.06-31.03L457.06-31.03Q457.06-32.69 456.44-33.59L456.44-33.59L456.44-33.59Q455.83-34.49 454.61-34.49L454.61-34.49L454.61-34.49Q453.38-34.49 452.34-34.02L452.34-34.02L452.34-34.02Q451.30-33.55 450.22-31.97L450.22-31.97L450.22-31.97Q447.55-28.37 446.04-20.02ZM471.02-7.20L471.02-7.20L471.02-7.20Q471.02-9.14 472.03-14.04L472.03-14.04L475.85-33.48L471.60-33.48L471.89-35.64L471.89-35.64Q480.53-38.23 488.88-44.57L488.88-44.57L492.34-44.57L490.61-36.72L496.22-36.72L495.58-33.48L490.03-33.48L486.36-14.04L486.36-14.04Q485.42-9.58 485.42-8.06L485.42-8.06L485.42-8.06Q485.42-4.61 488.45-3.89L488.45-3.89L488.45-3.89Q487.73-1.44 485.14 0L485.14 0L485.14 0Q482.54 1.44 478.87 1.44L478.87 1.44L478.87 1.44Q475.20 1.44 473.11-0.86L473.11-0.86L473.11-0.86Q471.02-3.17 471.02-7.20Z" fill="none" stroke="#ffffff" stroke-width="2.1"></path></g></g></g><style>text {
  font-size: 64px;
  font-family: Arial Black;
  dominant-baseline: central;
  text-anchor: middle;
}</style></svg>